<svg width="76" height="88" viewBox="0 0 76 88" fill="none" xmlns="http://www.w3.org/2000/svg">
<path d="M59.6609 69.0958C65.8329 70.1223 68.026 68.873 72.3976 65.9256C72.4761 65.872 72.5495 65.8112 72.6166 65.7438C73.7885 64.7058 74.7017 63.4063 75.2829 61.9497C75.8641 60.4931 76.0971 58.9199 75.9632 57.3564C75.9632 53.4355 74.4082 48.9617 72.9495 45.0759C72.8448 44.797 72.6578 44.5568 72.4137 44.3873C72.1695 44.2178 71.8797 44.1271 71.5829 44.1272C71.287 44.1269 70.998 44.217 70.7542 44.3853C70.5104 44.5537 70.3233 44.7925 70.2177 45.0701C68.6831 49.1069 66.4476 53.5748 61.5284 56.047C55.8091 58.9239 51.8916 58.3741 50.122 56.8931C49.7315 56.6161 49.4338 56.2269 49.2681 55.7767C49.1023 55.3265 49.0762 54.8364 49.1933 54.371C49.6314 52.8914 51.5135 51.802 54.2424 51.4588C61.397 50.56 66.0534 44.595 69.8658 39.0757C70.0198 38.8526 70.1091 38.591 70.1238 38.3199C70.1385 38.0488 70.078 37.779 69.949 37.5405C69.4701 36.6607 69.0072 35.7647 68.5458 34.8732C67.2235 32.1725 65.7078 29.5718 64.0107 27.0914C63.8596 26.8802 63.6554 26.7132 63.4188 26.6074C63.1823 26.5016 62.9221 26.4608 62.6647 26.4893C62.4073 26.5178 62.1622 26.6145 61.9543 26.7696C61.7464 26.9246 61.5833 27.1323 61.4817 27.3715C59.9206 30.4942 57.833 33.322 55.3112 35.7295C51.8858 39.1798 49.005 39.9423 47.9069 39.6109C47.6149 39.52 47.5843 39.4027 47.5697 39.3176C47.4601 38.7824 47.9551 37.1783 50.6213 34.9436C54.4082 31.503 57.5009 27.3631 59.731 22.7496C59.8671 22.4961 59.9259 22.2079 59.8999 21.921C59.8739 21.6342 59.7644 21.3614 59.585 21.1366C53.406 13.5167 46.4788 6.54094 38.9082 0.314761C38.6346 0.0981741 38.2929 -0.0130339 37.9448 0.00121792C37.5967 0.0154697 37.2652 0.154242 37.01 0.392476C30.2098 6.89746 23.8215 13.8233 17.8824 21.1293C17.7032 21.3508 17.5923 21.62 17.5632 21.904C17.5342 22.1879 17.5883 22.4741 17.7189 22.7276C19.8866 27.3881 22.9917 31.5475 26.8388 34.9436C29.3765 37.0712 29.8569 38.6094 29.7401 39.171C29.7211 39.2634 29.6817 39.4643 29.2539 39.586C28.2055 39.8983 25.2516 39.4907 21.5152 35.7222C19.0634 33.4257 17.1773 30.5879 16.0061 27.433C15.9139 27.1849 15.7564 26.9665 15.5504 26.8011C15.3445 26.6356 15.0977 26.5293 14.8364 26.4933C14.5751 26.4574 14.309 26.4932 14.0664 26.597C13.8237 26.7007 13.6135 26.8685 13.4582 27.0826C12.7763 28.021 12.0492 28.9756 11.3118 29.9419C9.38365 32.3426 7.62711 34.8774 6.05539 37.5273C5.92494 37.7628 5.86165 38.0298 5.87247 38.2991C5.88329 38.5684 5.9678 38.8295 6.11672 39.0537C8.35217 42.4263 14.4935 50.362 23.2119 51.4588C25.8401 51.7902 27.6579 52.8211 28.0653 54.2155C28.1721 54.6957 28.1344 55.197 27.9571 55.6556C27.7798 56.1143 27.4709 56.5098 27.0695 56.7919C25.2035 58.3594 21.1253 58.9914 15.2863 56.047C13.0324 54.9953 11.0232 53.4807 9.38843 51.6008C7.75366 49.7209 6.52966 47.5176 5.79549 45.1331C5.7015 44.8482 5.52271 44.5991 5.28327 44.4195C5.04383 44.2399 4.75527 44.1383 4.45656 44.1287C4.15684 44.1131 3.85991 44.1933 3.60835 44.3576C3.3568 44.522 3.16354 44.7622 3.0563 45.0437C1.14645 49.8019 0.0367574 53.3416 0.0367574 57.3564C-0.0971294 58.9199 0.135882 60.4931 0.717084 61.9497C1.29829 63.4063 2.21149 64.7058 3.38336 65.7438C3.44859 65.8097 3.51998 65.8691 3.59654 65.9212C7.93019 68.8774 10.1058 70.1413 16.3391 69.0958C22.4146 68.0694 25.4371 68.8246 26.1774 69.7718C26.2606 69.8789 26.4563 70.1296 26.2022 70.7205C25.4444 72.4801 22.1138 74.5828 17.4254 75.011C12.5698 75.2798 7.77395 73.8317 3.87105 70.9185C3.62018 70.7165 3.30993 70.6033 2.98846 70.5965C2.66699 70.5897 2.35228 70.6897 2.09316 70.8809C1.83405 71.0721 1.64502 71.3438 1.55542 71.6539C1.46582 71.9641 1.48066 72.2952 1.59763 72.596C2.73314 75.7686 4.53126 78.6605 6.87132 81.0778C9.21138 83.4951 12.0392 85.3817 15.1651 86.6111C17.7092 87.5421 20.3976 88.0122 23.1053 87.9998C28.3066 87.8768 33.4041 86.5127 37.9766 84.0201C45.3298 88.0511 52.7925 88.9807 59.604 86.7065C62.9226 85.5543 65.9578 83.7035 68.5066 81.2782C71.0555 78.8528 73.0591 75.9087 74.3834 72.6429C74.5089 72.3464 74.5337 72.0165 74.4539 71.7044C74.3742 71.3923 74.1942 71.1153 73.9419 70.9162C73.6896 70.7171 73.3791 70.607 73.0582 70.6029C72.7374 70.5988 72.4242 70.701 72.1669 70.8936C68.2043 73.7074 63.4388 75.1524 58.5878 75.011C53.9022 74.5828 50.5688 72.4816 49.8109 70.7205C49.5569 70.134 49.7525 69.8789 49.8358 69.7718C50.5571 68.8231 53.581 68.0768 59.6609 69.0958ZM47.117 71.8819C48.4413 74.9612 53.0451 77.4539 58.3089 77.9305C62.0786 78.1161 65.8386 77.4036 69.2817 75.8512C66.7125 79.6222 62.9927 82.4526 58.6827 83.916C52.6962 85.9132 46.0584 85.0451 39.4601 81.4555V67.0533L47.2221 64.4549L46.2993 61.6689L39.4601 63.9637V49.6435L47.0002 48.381L46.5213 45.4894L39.4601 46.6713V35.8116L47.7931 27.4433L45.7284 25.3699L39.4601 31.6649V10.277H36.5399V22.8669L31.0016 17.3051L28.937 19.3785L36.5399 27.0137V50.0614L30.0496 45.7152L28.4289 48.1552L36.5399 53.585V66.1954L30.0496 61.8493L28.4289 64.2892L36.5399 69.7146V81.4453C29.1662 85.2123 22.1372 86.0701 16.1755 83.8662C12.1707 82.3369 8.77677 79.5293 6.51533 75.8747C10.011 77.4875 13.8527 78.1972 17.6911 77.9393C22.9549 77.4583 27.5587 74.9685 28.883 71.8907C29.1824 71.2635 29.303 70.5652 29.2313 69.8733C29.1597 69.1815 28.8986 68.5231 28.4771 67.9712C26.7249 65.7277 22.365 65.1177 15.8572 66.2116C10.5759 67.0987 9.11289 66.1471 5.35599 63.5839C4.48585 62.817 3.81325 61.8502 3.39554 60.7658C2.97782 59.6815 2.82737 58.5118 2.95701 57.3564C3.01304 54.683 3.52875 52.0394 4.48138 49.5424C6.56669 53.5479 9.90566 56.7537 13.9839 58.6659C22.9228 63.166 27.6944 60.0911 28.9472 59.0412C29.7878 58.3946 30.4191 57.5128 30.7618 56.5067C31.1045 55.5006 31.1432 54.4152 30.8731 53.3871C30.1182 50.799 27.4579 49.035 23.5725 48.5482C16.523 47.6596 11.1425 41.111 9.05741 38.1695C10.4605 35.9368 11.9842 33.783 13.6218 31.7177L14.2832 30.8496C15.6037 33.4377 17.3458 35.7859 19.4374 37.7971C23.8353 42.2268 27.8127 43.0758 30.0861 42.3999C30.7078 42.2383 31.2721 41.9056 31.7156 41.4393C32.159 40.973 32.464 40.3915 32.5961 39.7605C33.0254 37.668 31.6441 35.1577 28.7092 32.6928C25.3877 29.7739 22.682 26.2165 20.7515 22.2305C26.1694 15.6419 31.9529 9.36533 38.0745 3.43071C44.8366 9.11387 51.0676 15.4057 56.6896 22.2276C54.7019 26.1811 52.0087 29.7347 48.7436 32.7118C45.7095 35.2588 44.2756 37.822 44.7064 39.9276C44.8292 40.5242 45.1152 41.0746 45.5323 41.517C45.9493 41.9594 46.4809 42.2763 47.0674 42.4321C49.7847 43.2445 53.7358 41.4775 57.3773 37.8117C59.5054 35.707 61.3817 33.3602 62.9681 30.8188C64.0428 32.5564 64.9758 34.3556 65.9468 36.2281C66.2768 36.8655 66.6097 37.5009 66.9455 38.1343C63.5872 42.9145 59.5368 47.8311 53.8745 48.5452C49.8956 49.0453 47.1667 50.8665 46.3855 53.541C46.1103 54.5542 46.1399 55.6266 46.4707 56.6229C46.8015 57.6192 47.4186 58.4949 48.2442 59.1395C51.4565 61.8258 56.9013 61.6513 62.8323 58.6629C66.6393 56.6904 69.6739 53.4879 71.4471 49.5717C72.3744 52.0688 72.9127 54.6945 73.043 57.3564C73.1776 58.5103 73.0297 59.6797 72.6121 60.7632C72.1945 61.8467 71.52 62.8114 70.6469 63.5737C66.8506 66.1309 65.3686 67.0796 60.1428 66.2042C53.6423 65.1148 49.2722 65.7218 47.5229 67.9638C47.1011 68.5159 46.8399 69.1746 46.7682 69.8667C46.6966 70.5589 46.8173 71.2574 47.117 71.8848V71.8819Z" fill="#2A9D8F"/>
</svg>
